<svg width="58" height="14" viewBox="0 0 58 14" fill="none" xmlns="http://www.w3.org/2000/svg">
<path d="M2.752 6.996C3.032 7.21067 3.326 7.47667 3.634 7.794C3.95133 8.11133 4.25933 8.45667 4.558 8.83C4.866 9.194 5.15533 9.56733 5.426 9.95C5.69667 10.3233 5.92533 10.6733 6.112 11H4.586C4.39 10.6733 4.16133 10.342 3.9 10.006C3.648 9.66067 3.382 9.334 3.102 9.026C2.822 8.70867 2.53733 8.41933 2.248 8.158C1.95867 7.89667 1.68333 7.67733 1.422 7.5V11H0.12V0.359999L1.422 0.136V6.772C1.646 6.548 1.89333 6.30067 2.164 6.03C2.43467 5.75933 2.70067 5.484 2.962 5.204C3.22333 4.924 3.47067 4.658 3.704 4.406C3.93733 4.14467 4.138 3.916 4.306 3.72H5.832C5.61733 3.95333 5.384 4.21 5.132 4.49C4.88 4.77 4.61867 5.05467 4.348 5.344C4.07733 5.624 3.802 5.90867 3.522 6.198C3.25133 6.478 2.99467 6.744 2.752 6.996ZM9.89845 10.062C10.2065 10.062 10.4771 10.0573 10.7105 10.048C10.9531 10.0293 11.1538 10.0013 11.3125 9.964V7.794C11.2191 7.74733 11.0651 7.71 10.8505 7.682C10.6451 7.64467 10.3931 7.626 10.0945 7.626C9.89845 7.626 9.68845 7.64 9.46445 7.668C9.24979 7.696 9.04912 7.75667 8.86245 7.85C8.68512 7.934 8.53579 8.05533 8.41445 8.214C8.29312 8.36333 8.23245 8.564 8.23245 8.816C8.23245 9.28267 8.38179 9.60933 8.68045 9.796C8.97912 9.97333 9.38512 10.062 9.89845 10.062ZM9.78645 3.538C10.3091 3.538 10.7478 3.608 11.1025 3.748C11.4665 3.87867 11.7558 4.07 11.9705 4.322C12.1945 4.56467 12.3531 4.85867 12.4465 5.204C12.5398 5.54 12.5865 5.91333 12.5865 6.324V10.874C12.4745 10.8927 12.3158 10.9207 12.1105 10.958C11.9145 10.986 11.6905 11.014 11.4385 11.042C11.1865 11.07 10.9111 11.0933 10.6125 11.112C10.3231 11.14 10.0338 11.154 9.74445 11.154C9.33379 11.154 8.95579 11.112 8.61045 11.028C8.26512 10.944 7.96645 10.8133 7.71445 10.636C7.46245 10.4493 7.26645 10.2067 7.12645 9.908C6.98645 9.60933 6.91645 9.25 6.91645 8.83C6.91645 8.42867 6.99579 8.08333 7.15445 7.794C7.32245 7.50467 7.54645 7.27133 7.82645 7.094C8.10645 6.91667 8.43312 6.786 8.80645 6.702C9.17979 6.618 9.57179 6.576 9.98245 6.576C10.1131 6.576 10.2485 6.58533 10.3885 6.604C10.5285 6.61333 10.6591 6.632 10.7805 6.66C10.9111 6.67867 11.0231 6.69733 11.1165 6.716C11.2098 6.73467 11.2751 6.74867 11.3125 6.758V6.394C11.3125 6.17933 11.2891 5.96933 11.2425 5.764C11.1958 5.54933 11.1118 5.36267 10.9905 5.204C10.8691 5.036 10.7011 4.90533 10.4865 4.812C10.2811 4.70933 10.0105 4.658 9.67445 4.658C9.24512 4.658 8.86712 4.69067 8.54045 4.756C8.22312 4.812 7.98512 4.87267 7.82645 4.938L7.67245 3.86C7.84045 3.78533 8.12045 3.71533 8.51245 3.65C8.90445 3.57533 9.32912 3.538 9.78645 3.538ZM19.8029 7.374C19.8029 6.52467 19.5929 5.87133 19.1729 5.414C18.7529 4.95667 18.1929 4.728 17.4929 4.728C17.1009 4.728 16.7929 4.742 16.5689 4.77C16.3542 4.798 16.1816 4.83067 16.0509 4.868V9.46C16.2096 9.59067 16.4382 9.71667 16.7369 9.838C17.0356 9.95933 17.3622 10.02 17.7169 10.02C18.0902 10.02 18.4076 9.95467 18.6689 9.824C18.9396 9.684 19.1589 9.49733 19.3269 9.264C19.4949 9.02133 19.6162 8.74133 19.6909 8.424C19.7656 8.09733 19.8029 7.74733 19.8029 7.374ZM21.1609 7.374C21.1609 7.92467 21.0862 8.43333 20.9369 8.9C20.7969 9.36667 20.5869 9.768 20.3069 10.104C20.0269 10.44 19.6816 10.7013 19.2709 10.888C18.8696 11.0747 18.4076 11.168 17.8849 11.168C17.4649 11.168 17.0916 11.112 16.7649 11C16.4476 10.888 16.2096 10.7807 16.0509 10.678V13.59H14.7489V3.944C15.0569 3.86933 15.4396 3.79 15.8969 3.706C16.3636 3.61267 16.9002 3.566 17.5069 3.566C18.0669 3.566 18.5709 3.65467 19.0189 3.832C19.4669 4.00933 19.8496 4.26133 20.1669 4.588C20.4842 4.91467 20.7269 5.316 20.8949 5.792C21.0722 6.25867 21.1609 6.786 21.1609 7.374ZM28.047 7.374C28.047 6.52467 27.837 5.87133 27.417 5.414C26.997 4.95667 26.437 4.728 25.737 4.728C25.345 4.728 25.037 4.742 24.813 4.77C24.5984 4.798 24.4257 4.83067 24.295 4.868V9.46C24.4537 9.59067 24.6824 9.71667 24.981 9.838C25.2797 9.95933 25.6064 10.02 25.961 10.02C26.3344 10.02 26.6517 9.95467 26.913 9.824C27.1837 9.684 27.403 9.49733 27.571 9.264C27.739 9.02133 27.8604 8.74133 27.935 8.424C28.0097 8.09733 28.047 7.74733 28.047 7.374ZM29.405 7.374C29.405 7.92467 29.3304 8.43333 29.181 8.9C29.041 9.36667 28.831 9.768 28.551 10.104C28.271 10.44 27.9257 10.7013 27.515 10.888C27.1137 11.0747 26.6517 11.168 26.129 11.168C25.709 11.168 25.3357 11.112 25.009 11C24.6917 10.888 24.4537 10.7807 24.295 10.678V13.59H22.993V3.944C23.301 3.86933 23.6837 3.79 24.141 3.706C24.6077 3.61267 25.1444 3.566 25.751 3.566C26.311 3.566 26.815 3.65467 27.263 3.832C27.711 4.00933 28.0937 4.26133 28.411 4.588C28.7284 4.91467 28.971 5.316 29.139 5.792C29.3164 6.25867 29.405 6.786 29.405 7.374ZM33.8692 6.996C34.1492 7.21067 34.4432 7.47667 34.7512 7.794C35.0685 8.11133 35.3765 8.45667 35.6752 8.83C35.9832 9.194 36.2725 9.56733 36.5432 9.95C36.8139 10.3233 37.0425 10.6733 37.2292 11H35.7032C35.5072 10.6733 35.2785 10.342 35.0172 10.006C34.7652 9.66067 34.4992 9.334 34.2192 9.026C33.9392 8.70867 33.6545 8.41933 33.3652 8.158C33.0759 7.89667 32.8005 7.67733 32.5392 7.5V11H31.2372V0.359999L32.5392 0.136V6.772C32.7632 6.548 33.0105 6.30067 33.2812 6.03C33.5519 5.75933 33.8179 5.484 34.0792 5.204C34.3405 4.924 34.5879 4.658 34.8212 4.406C35.0545 4.14467 35.2552 3.916 35.4232 3.72H36.9492C36.7345 3.95333 36.5012 4.21 36.2492 4.49C35.9972 4.77 35.7359 5.05467 35.4652 5.344C35.1945 5.624 34.9192 5.90867 34.6392 6.198C34.3685 6.478 34.1119 6.744 33.8692 6.996ZM37.7765 7.374C37.7765 6.73 37.8698 6.17 38.0565 5.694C38.2432 5.20867 38.4905 4.80733 38.7985 4.49C39.1065 4.17267 39.4612 3.93467 39.8625 3.776C40.2638 3.61733 40.6745 3.538 41.0945 3.538C42.0745 3.538 42.8258 3.846 43.3485 4.462C43.8712 5.06867 44.1325 5.99733 44.1325 7.248C44.1325 7.304 44.1325 7.37867 44.1325 7.472C44.1325 7.556 44.1278 7.63533 44.1185 7.71H39.1345C39.1905 8.466 39.4098 9.04 39.7925 9.432C40.1752 9.824 40.7725 10.02 41.5845 10.02C42.0418 10.02 42.4245 9.98267 42.7325 9.908C43.0498 9.824 43.2878 9.74467 43.4465 9.67L43.6285 10.762C43.4698 10.846 43.1898 10.9347 42.7885 11.028C42.3965 11.1213 41.9485 11.168 41.4445 11.168C40.8098 11.168 40.2592 11.0747 39.7925 10.888C39.3352 10.692 38.9572 10.426 38.6585 10.09C38.3598 9.754 38.1358 9.35733 37.9865 8.9C37.8465 8.43333 37.7765 7.92467 37.7765 7.374ZM42.7745 6.66C42.7838 6.072 42.6345 5.59133 42.3265 5.218C42.0278 4.83533 41.6125 4.644 41.0805 4.644C40.7818 4.644 40.5158 4.70467 40.2825 4.826C40.0585 4.938 39.8672 5.08733 39.7085 5.274C39.5498 5.46067 39.4238 5.67533 39.3305 5.918C39.2465 6.16067 39.1905 6.408 39.1625 6.66H42.7745ZM46.0228 10.676C46.0228 10.784 45.9868 10.878 45.9148 10.958C45.8428 11.038 45.7448 11.078 45.6208 11.078C45.4968 11.078 45.3988 11.038 45.3268 10.958C45.2548 10.878 45.2188 10.784 45.2188 10.676C45.2188 10.568 45.2548 10.474 45.3268 10.394C45.3988 10.314 45.4968 10.274 45.6208 10.274C45.7448 10.274 45.8428 10.314 45.9148 10.394C45.9868 10.474 46.0228 10.568 46.0228 10.676ZM47.3614 7.88H48.5434V8.348H47.3614V9.788C47.3614 9.944 47.3734 10.074 47.3974 10.178C47.4214 10.278 47.4574 10.358 47.5054 10.418C47.5534 10.474 47.6134 10.514 47.6854 10.538C47.7574 10.562 47.8414 10.574 47.9374 10.574C48.1054 10.574 48.2394 10.556 48.3394 10.52C48.4434 10.48 48.5154 10.452 48.5554 10.436L48.6634 10.898C48.6074 10.926 48.5094 10.96 48.3694 11C48.2294 11.044 48.0694 11.066 47.8894 11.066C47.6774 11.066 47.5014 11.04 47.3614 10.988C47.2254 10.932 47.1154 10.85 47.0314 10.742C46.9474 10.634 46.8874 10.502 46.8514 10.346C46.8194 10.186 46.8034 10.002 46.8034 9.794V7.01L47.3614 6.914V7.88ZM49.0208 9.446C49.0208 9.17 49.0608 8.93 49.1408 8.726C49.2208 8.518 49.3268 8.346 49.4588 8.21C49.5908 8.074 49.7428 7.972 49.9148 7.904C50.0868 7.836 50.2628 7.802 50.4428 7.802C50.8628 7.802 51.1848 7.934 51.4088 8.198C51.6328 8.458 51.7448 8.856 51.7448 9.392C51.7448 9.416 51.7448 9.448 51.7448 9.488C51.7448 9.524 51.7428 9.558 51.7388 9.59H49.6028C49.6268 9.914 49.7208 10.16 49.8848 10.328C50.0488 10.496 50.3048 10.58 50.6528 10.58C50.8488 10.58 51.0128 10.564 51.1448 10.532C51.2808 10.496 51.3828 10.462 51.4508 10.43L51.5288 10.898C51.4608 10.934 51.3408 10.972 51.1688 11.012C51.0008 11.052 50.8088 11.072 50.5928 11.072C50.3208 11.072 50.0848 11.032 49.8848 10.952C49.6888 10.868 49.5268 10.754 49.3988 10.61C49.2708 10.466 49.1748 10.296 49.1108 10.1C49.0508 9.9 49.0208 9.682 49.0208 9.446ZM51.1628 9.14C51.1668 8.888 51.1028 8.682 50.9708 8.522C50.8428 8.358 50.6648 8.276 50.4368 8.276C50.3088 8.276 50.1948 8.302 50.0948 8.354C49.9988 8.402 49.9168 8.466 49.8488 8.546C49.7808 8.626 49.7268 8.718 49.6868 8.822C49.6508 8.926 49.6268 9.032 49.6148 9.14H51.1628ZM53.9024 11.072C53.6504 11.072 53.4284 11.032 53.2364 10.952C53.0484 10.872 52.8884 10.76 52.7564 10.616C52.6284 10.472 52.5324 10.302 52.4684 10.106C52.4044 9.906 52.3724 9.686 52.3724 9.446C52.3724 9.206 52.4064 8.986 52.4744 8.786C52.5464 8.586 52.6464 8.414 52.7744 8.27C52.9024 8.122 53.0584 8.008 53.2424 7.928C53.4304 7.844 53.6384 7.802 53.8664 7.802C54.0064 7.802 54.1464 7.814 54.2864 7.838C54.4264 7.862 54.5604 7.9 54.6884 7.952L54.5624 8.426C54.4784 8.386 54.3804 8.354 54.2684 8.33C54.1604 8.306 54.0444 8.294 53.9204 8.294C53.6084 8.294 53.3684 8.392 53.2004 8.588C53.0364 8.784 52.9544 9.07 52.9544 9.446C52.9544 9.614 52.9724 9.768 53.0084 9.908C53.0484 10.048 53.1084 10.168 53.1884 10.268C53.2724 10.368 53.3784 10.446 53.5064 10.502C53.6344 10.554 53.7904 10.58 53.9744 10.58C54.1224 10.58 54.2564 10.566 54.3764 10.538C54.4964 10.51 54.5904 10.48 54.6584 10.448L54.7364 10.916C54.7044 10.936 54.6584 10.956 54.5984 10.976C54.5384 10.992 54.4704 11.006 54.3944 11.018C54.3184 11.034 54.2364 11.046 54.1484 11.054C54.0644 11.066 53.9824 11.072 53.9024 11.072ZM55.3355 11V6.44L55.8935 6.344V7.94C55.9975 7.9 56.1075 7.87 56.2235 7.85C56.3435 7.826 56.4615 7.814 56.5775 7.814C56.8255 7.814 57.0315 7.85 57.1955 7.922C57.3595 7.99 57.4895 8.088 57.5855 8.216C57.6855 8.34 57.7555 8.49 57.7955 8.666C57.8355 8.842 57.8555 9.036 57.8555 9.248V11H57.2975V9.368C57.2975 9.176 57.2835 9.012 57.2555 8.876C57.2315 8.74 57.1895 8.63 57.1295 8.546C57.0695 8.462 56.9895 8.402 56.8895 8.366C56.7895 8.326 56.6655 8.306 56.5175 8.306C56.4575 8.306 56.3955 8.31 56.3315 8.318C56.2675 8.326 56.2055 8.336 56.1455 8.348C56.0895 8.356 56.0375 8.366 55.9895 8.378C55.9455 8.39 55.9135 8.4 55.8935 8.408V11H55.3355Z" fill="black"/>
</svg>
